<?xml version="1.0" encoding="UTF-8" standalone="no"?>
<svg width="65px" height="73px" viewBox="0 0 65 73" version="1.1" xmlns="http://www.w3.org/2000/svg" xmlns:xlink="http://www.w3.org/1999/xlink" xmlns:sketch="http://www.bohemiancoding.com/sketch/ns">
    <!-- Generator: Sketch 3.3.3 (12081) - http://www.bohemiancoding.com/sketch -->
    <title>pulseband-wirelogo</title>
    <desc>Created with Sketch.</desc>
    <defs></defs>
    <g id="Page-1" stroke="none" stroke-width="1" fill="none" fill-rule="evenodd" sketch:type="MSPage">
        <g id="pulseband-wirelogo" sketch:type="MSLayerGroup" transform="translate(2.000000, 0.000000)">
            <g id="Group" sketch:type="MSShapeGroup">
                <path d="M40.3,0.1 C40,0.2 39.4,0.3 38.9,0.5 C38.6,0.6 38.3,0.7 37.9,0.8 C37.6,0.9 37.2,1.1 36.9,1.2 C36.5,1.4 36.2,1.5 35.8,1.7 C35.6,1.8 35.4,1.9 35.3,2 C35.2,2.1 35,2.2 34.9,2.3 C34.3,2.8 33.8,3.3 33.3,3.8 C32.8,4.3 32.4,4.9 32,5.5 C31.8,5.8 31.6,6.1 31.5,6.4 C31.3,6.7 31.2,7 31,7.4 C30.8,7.9 30.6,8.4 30.5,8.8 C30.3,8.3 30.2,7.8 30,7.4 C29.9,7.1 29.7,6.8 29.5,6.4 C29.3,6.1 29.2,5.8 29,5.5 C28.6,4.9 28.2,4.3 27.7,3.8 C27.2,3.3 26.7,2.7 26.1,2.3 C26,2.2 25.8,2.1 25.7,2 C25.6,1.9 25.4,1.8 25.2,1.7 C24.8,1.5 24.5,1.3 24.1,1.2 C23.7,1 23.4,0.9 23.1,0.8 C22.8,0.7 22.4,0.6 22.1,0.5 C21.5,0.3 21,0.2 20.7,0.1 C20.5,0 20.3,0 20.3,0 C20.3,0 20.4,0.1 20.6,0.2 C20.8,0.3 21.2,0.5 21.5,0.8 C21.7,0.9 21.9,1.1 22.1,1.2 C22.3,1.4 22.5,1.5 22.7,1.7 C22.9,1.9 23.1,2.1 23.3,2.3 C23.4,2.4 23.5,2.5 23.7,2.6 C23.8,2.7 24,2.8 24.1,2.9 C24.6,3.3 25.1,3.8 25.6,4.3 C26.1,4.8 26.5,5.4 26.8,6 C27,6.3 27.1,6.6 27.3,6.9 C27.4,7.2 27.6,7.5 27.7,7.8 C28,8.4 28.2,9.1 28.4,9.7 C29.2,12.3 29.2,14.9 29.1,16.9 L29.1,17.3 L29.1,17.6 C29.2,17.8 29.2,18 29.3,18.2 C29.4,18.6 29.5,19 29.6,19.2 C29.8,19.8 29.9,20.1 29.9,20.1 C29.9,20.1 30.2,19.8 30.5,19.2 L30.6,19.1 L30.7,19.2 C31.1,19.8 31.3,20.1 31.3,20.1 C31.3,20.1 31.4,19.8 31.6,19.2 C31.7,18.9 31.8,18.6 31.9,18.2 C32,18 32,17.8 32.1,17.6 L32.1,17.3 L32.1,16.9 C32,14.9 32,12.3 32.8,9.7 C33,9.1 33.2,8.4 33.5,7.8 C33.6,7.5 33.8,7.2 33.9,6.9 C34.1,6.6 34.2,6.3 34.4,6 C34.8,5.4 35.2,4.8 35.6,4.3 C36.1,3.8 36.5,3.3 37.1,2.9 C37.2,2.8 37.4,2.7 37.5,2.6 C37.6,2.5 37.8,2.4 37.9,2.3 C38.1,2.1 38.3,1.9 38.5,1.7 C38.7,1.5 38.9,1.4 39.1,1.2 C39.3,1 39.5,0.9 39.7,0.8 C40,0.5 40.4,0.4 40.6,0.2 C40.8,0.1 40.9,0 40.9,0 C40.9,0 40.7,0 40.3,0.1 L40.3,0.1 Z" id="Shape" fill="#333333"></path>
                <path d="M45.7,70.8 C37.4,70.8 30.6,64 30.6,55.7 C30.6,64 23.8,70.8 15.5,70.8 C7.2,70.8 0.4,64 0.4,55.7 C0.4,47.4 5.2,40.6 13.4,36.7 C18.5,34.3 30.6,20.9 30.6,20.9 C30.6,20.9 42.8,34.2 47.8,36.7 C56,40.6 60.8,47.4 60.8,55.7 C60.8,64.1 54,70.8 45.7,70.8 L45.7,70.8 Z" id="Shape" stroke="#333333" stroke-width="3"></path>
                <path d="M45.7,5.6 C37.4,5.6 30.6,12.4 30.6,20.7 C30.6,12.4 23.8,5.6 15.5,5.6 C7.2,5.6 0.4,12.4 0.4,20.7 C0.4,29 5.2,35.8 13.4,39.7 C18.5,42.1 30.6,55.5 30.6,55.5 C30.6,55.5 42.8,42.2 47.8,39.7 C56,35.8 60.8,29 60.8,20.7 C60.8,12.3 54,5.6 45.7,5.6 L45.7,5.6 Z" id="Shape" stroke="#333333" stroke-width="3"></path>
            </g>
        </g>
    </g>
</svg>