<?xml version="1.0" encoding="utf-8"?>
<!-- Generator: Adobe Illustrator 19.1.0, SVG Export Plug-In . SVG Version: 6.00 Build 0)  -->
<svg version="1.1" id="Layer_1" xmlns="http://www.w3.org/2000/svg" xmlns:xlink="http://www.w3.org/1999/xlink" x="0px" y="0px"
	 viewBox="0 0 135 88.9" style="enable-background:new 0 0 135 88.9;" xml:space="preserve">
<style type="text/css">
	.st0{fill:#FFFFFF;}
	.st1{fill:#231F20;}
	.st2{fill:none;stroke:#231F20;stroke-miterlimit:10;}
	.st3{fill:url(#SVGID_1_);}
	.st4{fill:none;stroke:#231F20;stroke-width:10;stroke-miterlimit:10;}
</style>
<path class="st0" d="M46.3,59h37.9V47.7H57.5V14.7h21.2c15.6,0,28.2,12.7,28.2,28.2c0,15.6-12.7,28.2-28.2,28.2h-41v11.3h41
	c21.8,0,39.5-17.7,39.5-39.5c0-21.8-17.7-39.5-39.5-39.5H46.3h-0.1v11.2h0.1v33.1h-0.1V59L46.3,59z"/>
<path class="st0" d="M38.1,18.2H27.8v53.9c0,5.7,4.6,10.3,10.3,10.3h0V18.2z"/>
<rect x="27.8" y="3.4" class="st0" width="10.7" height="10.7"/>
</svg>
